<svg width="2500" height="2500" viewBox="0 0 256 256" xmlns="http://www.w3.org/2000/svg" preserveAspectRatio="xMidYMid"><path d="M225.85 128.024c0-54.024-43.846-97.87-97.87-97.87-54.023 0-97.869 43.846-97.869 97.87 0 54.023 43.846 97.869 97.87 97.869 54.023 0 97.869-43.846 97.869-97.87" fill="#757575"/><path d="M197.195 87.475c0-15.823-12.842-28.666-28.665-28.666-15.823 0-28.666 12.843-28.666 28.666s12.843 28.665 28.666 28.665 28.665-12.842 28.665-28.665" fill="#FFF"/><path d="M254.515 30.154c0-15.823-12.842-28.665-28.665-28.665-15.823 0-28.665 12.842-28.665 28.665 0 15.824 12.842 28.666 28.665 28.666 15.823 0 28.665-12.842 28.665-28.666" fill="#757575"/><path d="M61.25 113.756h8.559v55.654h31.697v7.526H61.25v-63.18M116.946 130.874v30.579c0 2.351.363 4.273 1.09 5.763 1.34 2.753 3.839 4.13 7.497 4.13 5.25 0 8.824-2.41 10.723-7.226 1.033-2.581 1.55-6.122 1.55-10.624v-22.622h7.74v46.062h-7.31l.086-6.795c-.986 1.749-2.21 3.225-3.674 4.43-2.897 2.408-6.414 3.613-10.55 3.613-6.443 0-10.832-2.194-13.166-6.581-1.266-2.35-1.9-5.49-1.9-9.419v-31.31h7.914M182.88 149.06c1.777-.229 2.967-.973 3.57-2.233.342-.69.515-1.683.515-2.979 0-2.647-.938-4.569-2.812-5.763-1.875-1.195-4.557-1.792-8.047-1.792-4.035 0-6.897 1.095-8.585 3.285-.945 1.21-1.56 3.012-1.846 5.403h-7.225c.143-5.694 1.983-9.654 5.52-11.883 3.536-2.228 7.639-3.342 12.307-3.342 5.412 0 9.809 1.032 13.188 3.096 3.35 2.065 5.026 5.276 5.026 9.635v26.538c0 .802.165 1.448.495 1.934.329.487 1.025.73 2.086.73.344 0 .73-.021 1.16-.064.431-.043.89-.107 1.377-.193v5.72c-1.204.343-2.122.558-2.752.644-.631.086-1.492.13-2.58.13-2.667 0-4.603-.947-5.807-2.839-.631-1.003-1.075-2.422-1.333-4.257-1.578 2.065-3.843 3.856-6.796 5.376-2.953 1.518-6.208 2.278-9.763 2.278-4.273 0-7.763-1.296-10.472-3.887-2.71-2.591-4.065-5.835-4.065-9.73 0-4.266 1.334-7.574 4-9.922 2.667-2.348 6.164-3.795 10.494-4.34l12.344-1.545zm-16.302 20.913c1.635 1.288 3.57 1.931 5.807 1.931 2.723 0 5.36-.63 7.913-1.889 4.301-2.09 6.451-5.51 6.451-10.263v-6.226c-.944.604-2.16 1.107-3.648 1.51s-2.947.69-4.378.861l-4.679.602c-2.804.372-4.913.959-6.326 1.76-2.394 1.344-3.59 3.49-3.59 6.436 0 2.232.816 3.99 2.45 5.278z" fill="#FFF"/></svg>
